<svg width="29" height="804" viewBox="0 0 29 804" fill="none" xmlns="http://www.w3.org/2000/svg">
<rect x="16" width="804" height="5" rx="2.5" transform="rotate(90 16 0)" fill="#D1D1D1"/>
<rect x="16" width="804" height="5" rx="2.5" transform="rotate(90 16 0)" fill="#F2F2F2"/>
<circle cx="13" cy="37" r="12" transform="rotate(90 13 37)" fill="#F2F2F2" stroke="white" stroke-width="2"/>
<circle cx="13.3647" cy="141" r="12" transform="rotate(90 13.3647 141)" fill="#F2F2F2" stroke="white" stroke-width="2"/>
<circle cx="13.7295" cy="245" r="12" transform="rotate(90 13.7295 245)" fill="#F2F2F2" stroke="white" stroke-width="2"/>
<circle cx="14.0938" cy="335" r="12" transform="rotate(90 14.0938 335)" fill="#F2F2F2" stroke="white" stroke-width="2"/>
<circle cx="14.4585" cy="437" r="12" transform="rotate(90 14.4585 437)" fill="#F2F2F2" stroke="white" stroke-width="2"/>
<circle cx="14.8232" cy="541" r="12" transform="rotate(90 14.8232 541)" fill="#F2F2F2" stroke="white" stroke-width="2"/>
<circle cx="15.1875" cy="645" r="12" transform="rotate(90 15.1875 645)" fill="#F2F2F2" stroke="white" stroke-width="2"/>
<circle cx="15.5522" cy="747" r="12" transform="rotate(90 15.5522 747)" fill="#F2F2F2" stroke="white" stroke-width="2"/>
</svg>
