<svg width="188" height="41" fill="none" xmlns="http://www.w3.org/2000/svg"><path d="M148.4 9.08h-.8c-4.81 0-9.56 1.25-14.59 2.57l-1.49.38.06 6.26v22.33h4.86V22.23l.14-7.16.69-.56a11.26 11.26 0 017.56-2.35c5.37 0 9.12 4.47 9.12 10.86v17.6h4.86V22c0-10.87-6.53-12.76-10.41-12.92zm39.36 3.33V9.08h-7.93V.23H175V30c0 4.14.71 6.8 2.27 8.42a8.37 8.37 0 006.25 2.32 19.19 19.19 0 004.29-.44v-2.93h-1.47c-6.46 0-6.46-6.31-6.46-8.38V12.41h7.88zm-74.39-3.33a28 28 0 00-8.88 1.44v2.06a22.5 22.5 0 017.41-1.33c.558 0 1.116.036 1.67.11 7.14.71 7.7 6 7.7 7.59v2.55l-2-.06h-1c-1.43 0-3.12.09-4.76.26-8.59.84-12.94 3.94-12.94 9.2 0 6.46 5.32 9.74 15.82 9.74h9.7V21.22c.05-8.28-4.01-12.14-12.72-12.14zm7.9 30h-1.93a47.526 47.526 0 01-6.24-.33c-2-.29-8-1.17-8-7.38 0-2.29 1-6.36 8-7.74a32.88 32.88 0 016.33-.52h1.93l-.09 15.97zM69 9.08a12.94 12.94 0 00-4.85.84c-3.7 1.57-5.48 4.64-5.45 9.39l.14 21.36h5.1l-.12-18.1c0-4.05-.07-10.18 7.58-10.23.69 0 1.44 0 2.26.12V9.62A21.25 21.25 0 0069 9.08zM.66 25.28c0 9.58 6.26 15.53 16.33 15.53a26.91 26.91 0 006.36-.81v-2.68a21.995 21.995 0 01-4.64.46C11.2 37.78 6 32.49 6 24.93a12.94 12.94 0 013.55-9.38A12.61 12.61 0 0118.71 12c1.561-.018 3.119.15 4.64.5V9.64a25.671 25.671 0 00-4.89-.5C7.81 9.14.66 15.63.66 25.28zm87.83-1.85C84.38 22 81 20.59 81 16.87c0-3.35 2.71-5.51 6.92-5.51a15.38 15.38 0 015.44 1.08v-2.06a15.66 15.66 0 00-6.38-1.3c-6.59 0-10.68 3.36-10.68 8.82-.12 4.29 4.5 6.72 8.4 8 4.51 1.52 7.12 3.12 7.12 6.83 0 3.55-2.85 5.68-7.61 5.68a24.551 24.551 0 01-7.59-1.51v2.7a25.98 25.98 0 007.54 1.22c7.8 0 12.46-3.3 12.46-8.81-.08-4.01-2.51-6.63-8.13-8.58zM41.43 9.08h-.9C30.55 9.53 26 17.89 26 25.47c0 9 5.3 14.62 14.43 15.29h1.91c2.96.01 5.908-.366 8.77-1.12v-2.36c-2.475.57-5.01.842-7.55.81a20.12 20.12 0 01-3.51-.33c-5.69-1.16-9.16-5.05-9.3-10.41v-2h23.9v-1.62c.02-3.42-.93-14.65-13.22-14.65zm8.75 12.31v1.89H30.54l.24-2.14c.48-4.48 3.28-9.8 9.49-10h.6a8.76 8.76 0 016.51 2.54 11.14 11.14 0 012.8 7.71zM169.56 9.08h-5.16v31.54h5.16V9.08zM167 .23a2.44 2.44 0 00-2.58 2.52 2.6 2.6 0 005.19 0 2.462 2.462 0 00-1.608-2.373A2.46 2.46 0 00167 .23z" fill="#273D8B"/></svg>