<svg width="128" height="82" fill="none" xmlns="http://www.w3.org/2000/svg"><path fill-rule="evenodd" clip-rule="evenodd" d="M110.884 20.71h16.205l-1.593 8.655h-6.579l-1.525 8.172h5.888l-1.455 8.172h-5.887l-6.301 35.388h-9.625l10.872-60.388zm-3.463 0h-9.833L91.63 52.495c-.414 2.147-.761 3.531-1.038 4.154-.346.555-.762.831-1.386.831-.553 0-.9-.276-.97-.761-.068-.555.07-1.732.417-3.671l6.093-32.34h-9.903l-4.78 25.553c-.899 4.848-1.453 8.034-1.591 9.557-.07 1.524.138 2.978.762 4.362.553 1.386 1.662 2.494 3.254 3.325 1.593.9 3.463 1.316 5.748 1.316 2.077 0 3.878-.346 5.54-1.108 1.663-.692 3.047-1.8 4.225-3.186 1.178-1.385 2.009-2.77 2.424-4.087.485-1.314.97-3.6 1.592-6.925l5.403-28.807zM67.186 48.48c.415-4.917 1.038-10.873 1.939-18.075-2.562 8.24-4.294 14.196-5.194 18.075h3.255zm10.04-27.77L74.18 63.921h-9.072l.97-7.825h-3.463l-2.078 7.825h-9.833l13.85-43.213h12.673zm-20.497 0h-8.31l-3.602 19.46-1.939-19.46h-8.24l-8.103 43.212h8.31l3.67-19.666 1.454 19.666h8.657l8.103-43.213zm-26.523.346l-8.172 19.529 2.008 23.337H14.97L13.308 48.48 10.4 63.922H.91L10.815.903h9.487l-4.848 34.488 6.025-14.335h8.727z" fill="#00ACEC"/></svg>