<svg width="136" height="38" fill="none" xmlns="http://www.w3.org/2000/svg"><path fill-rule="evenodd" clip-rule="evenodd" d="M10.008 13.158c2.814-2.512 4.723-2.814 8.693-2.814v8.743c-.704-.05-1.407-.1-2.11-.1-6.08 0-6.18 3.969-6.231 5.677v12.26H.058V10.746h9.95v2.412zm10.486 5.578c.401-2.211.954-4.975 4.673-6.934 2.914-1.508 6.632-1.759 9.346-1.759 12.361 0 12.361 6.382 12.361 9.497v14.169c0 1.708.151 2.161.904 3.216h-10.2v-2.01c-1.307.904-3.718 2.612-8.592 2.612-6.533 0-9.396-3.969-9.396-8.39 0-1.559.351-3.719 2.21-5.578 2.362-2.412 5.175-2.814 9.748-3.417 2.864-.402 3.97-.652 5.527-1.105-.05-1.758-.552-2.965-3.517-2.965-2.361 0-3.015.604-3.367 2.412l-9.697.252zm13.465 7.085c-.854.2-1.758.402-2.662.703-2.01.804-2.11 2.01-2.11 2.312 0 .704.603 2.01 2.562 2.01 1.457 0 3.869-.954 4.774-2.965.502-1.104.502-2.16.502-3.065-1.005.351-2.01.703-3.066 1.005zm20.291 1.607c.955.954 1.91 1.809 3.92 2.663 1.859.754 3.265.854 4.12.854 1.256 0 2.713-.452 2.713-1.607 0-1.307-1.558-1.558-2.613-1.71-.904-.15-3.065-.502-5.426-1.206-2.412-.703-7.185-2.11-7.185-7.637 0-2.312 1.055-4.422 2.612-5.93 3.065-2.913 7.487-3.014 9.195-3.014 1.96 0 3.92.25 5.879.703 3.567.854 5.075 1.96 6.531 3.065l-5.577 5.075c-1.758-1.105-3.919-2.462-6.683-2.462-.401 0-2.21 0-2.21 1.357 0 .954.703 1.105 4.17 1.96 4.622 1.055 5.728 1.306 6.984 1.959 2.613 1.407 4.07 3.819 4.07 6.784 0 5.125-4.27 9.646-12.36 9.646-7.437 0-11.707-3.416-13.918-5.225l5.778-5.275zm49.469 2.512c-.654 1.407-1.206 2.513-2.512 3.819-1.457 1.507-4.825 4.17-10.853 4.17-8.593 0-13.868-5.828-13.868-14.22 0-4.32 1.557-7.838 3.718-10.049 3.617-3.768 8.791-3.969 10.752-3.969 1.76 0 6.733.05 10.703 4.07 1.005 1.005 1.457 1.709 2.06 2.713l-7.888 4.472c-.654-2.311-1.91-3.97-4.373-3.97-3.164 0-4.722 3.115-4.722 7.035 0 2.06.401 5.979 4.471 5.979 3.165 0 4.17-3.014 4.623-4.372l7.889 4.322zm2.149-28.54h10.301v12.11c.954-1.156 2.965-3.719 8.341-3.719 2.964 0 5.627 1.005 7.234 2.613 2.163 2.26 2.261 5.175 2.362 7.487v17.033h-10.3V22.052c-.05-1.156-.101-3.719-3.718-3.719-3.819 0-3.868 2.713-3.868 3.92v14.67h-10.352V1.4zm25.579.028h1.438c.854 0 1.277.36 1.277 1.083 0 .722-.459 1.022-.943 1.102l1.083 1.691h-.643l-1.066-1.682h-.581v1.682h-.565V1.428zm.565 1.682h.67c.538 0 .917-.08.917-.6 0-.405-.362-.572-.864-.572h-.722V3.11h-.001zm.634-3.04a3.29 3.29 0 013.296 3.296 3.291 3.291 0 01-3.296 3.295 3.29 3.29 0 01-3.295-3.295A3.291 3.291 0 01132.646.07zm0 6.08c1.489 0 2.731-1.269 2.731-2.784S134.135.582 132.646.582c-1.489 0-2.732 1.27-2.732 2.784 0 1.515 1.243 2.784 2.732 2.784z" fill="#CC2229"/></svg>