<svg width="172" height="41" fill="none" xmlns="http://www.w3.org/2000/svg"><path fill-rule="evenodd" clip-rule="evenodd" d="M130.834 14.16c0-2.83 1.398-3.556 3.587-3.035v8.218h-3.587v-5.184zm-9.894-3.793V39.95c0 .291.086.38.371.38h9.523V25.41h3.587v14.92h9.894V4.678h-19.047c-1.636 0-2.571.71-3.244 1.74-.636.973-1.084 2.39-1.084 3.949zm-63.201 8.85v-8.344c1.94 0 2.642-.317 3.12 1.613.631 2.54.66 7.63-3.12 6.73zM47.844 39.95c0 .291.086.38.371.38h9.524V25.41c1.392 0 3.586-.85 3.586 2.782v11.883h10.019V25.664c0-1.78-.87-3.393-2.598-3.54.476-.338 2.35-1.09 2.35-3.034v-8.217c0-1.603-.862-3.424-1.636-4.27-.963-1.05-2.116-1.925-4.053-1.925H47.844V39.95zm46.257.38h9.894V25.41h3.587v14.92h9.523c.285 0 .371-.088.371-.379V4.678h-9.894v14.665h-3.587V4.678h-9.894v35.651zm71.982-28.446c-1.219 0-2.597-1.197-2.597-2.276 0-1.113-.117-1.631.829-2.566 1.571-1.553 4.613-.535 4.613 2.06 0 1.592-1.263 2.782-2.845 2.782zM147.778 32.87c0 2.723.762 5.44 3.18 6.611 3.026 1.467 13.992 1.519 17.066.05 2.143-1.023 3.13-3.375 3.13-6.534V4.677h-9.895v27.055c0 2.309-.747 2.782-2.102 2.782-1.099 0-1.484-1.609-1.484-2.782V4.678h-9.895V32.87zm-73.095 7.46l16.326-.127v-6.069h-6.432v-8.723h6.432v-6.068h-6.432v-8.597h6.432V4.678H74.683v35.651z" fill="#5A5E5E"/><path fill-rule="evenodd" clip-rule="evenodd" d="M166.578 9.229c.247.477.623.87.742 1.39-.78-.066-.583-.726-1.057-1.195-.298-.295-.052-.195-.675-.195v1.39h-.494V7.46c.899 0 2.349-.216 2.349.885 0 .627-.29.836-.865.885zm-2.721-.38c0 1.67.933 2.77 2.334 2.739 3.103-.07 3.112-5.014-.108-5.014-1.116 0-2.226 1.098-2.226 2.275z" fill="#5A5E5E"/><path fill-rule="evenodd" clip-rule="evenodd" d="M165.588 8.976h.619c1.075 0 1-1.138.371-1.138h-.99v1.138z" fill="#5A5E5E"/><path fill-rule="evenodd" clip-rule="evenodd" d="M9.627 34.514c.122.465.055.258.364.513l1.69 1.307c.43.291.748.547 1.203.793 4.831 2.608 10.147 3.37 15.256.76 1.473-.753 3.793-2.28 4.845-3.645.169-.217.287-.316.484-.517 2.195-2.238 3.615-6.494 3.615-9.957-.974.666-2.63 2.136-4.031 3.085l-4.355 2.755c-.985.61-2.172 1.135-3.243 1.615C21.492 33 18.58 33.698 14.242 34.3c-1.44.199-2.879.214-4.615.214z" fill="#E9128B"/><path fill-rule="evenodd" clip-rule="evenodd" d="M.846 19.09c0 3.58.496 6.495 2.298 9.282.388.6 1.613 2.306 2.122 2.761.606.542 2.242 1.966 2.877 2.117-.512-2.244-.619-6.685-.619-9.229 0-5.28 1.045-9.37 2.551-13.7.275-.791.599-1.596.953-2.314.491-.995.379-.985 1.067-2.196.39-.688.755-1.442 1.119-2.144-1.651.393-3.29 1.274-4.709 2.14-.388.237-.64.438-1.032.716L5.58 8.127c-.359.309-.453.581-.807.945C2.94 10.955.846 15.356.846 19.091z" fill="#A4CC3A"/><path fill-rule="evenodd" clip-rule="evenodd" d="M15.564 1.896v.253c.746.064 2.862 1.106 3.658 1.444 1.1.467 2.42 1.178 3.475 1.758 3.098 1.705 6.38 4.1 8.853 6.628 2.114 2.161 1.794 1.797 3.708 4.174.416.516.716.994 1.103 1.527l2.084 3.18c.218-.466.495-3.232.495-4.046 0-4.121-1.594-8.806-4.36-11.6-.338-.343-.582-.612-.925-.95l-1.073-.926C30.402 1.658 26.879 0 23.974 0c-2.575 0-4.649.068-6.97 1.22-.484.24-.93.555-1.44.676z" fill="#BCBEBE"/></svg>