<svg width="155" height="68" fill="none" xmlns="http://www.w3.org/2000/svg"><path d="M85.752 67.14c-2.955-.104-6.596-.455-11.18-1.079-4.038-.55-6.823-1.005-20.76-3.395-9.388-1.61-14.328-2.246-18.564-2.39l-1.645-.056-2.658.1c-8.741.325-16.742 1.41-27.497 3.727l-2.814.607-.118-.047-.119-.046.022-6.325.021-6.324 1.52-.41c7.659-2.065 14.155-3.175 21.643-3.698l1.393-.097 7.046-.043 7.046-.042 1.772.099c6.192.347 11.013 1.032 22.53 3.201 10.885 2.05 15.245 2.702 21.138 3.162l1.899.148 4.05.002 4.05.002 1.857-.107a237.83 237.83 0 009.282-.747l2.954-.29.081.08.081.08-.166.158c-.118.114-16.954 11.243-20.46 13.526-.162.106-.37.208-.463.229-.093.02-.966.008-1.941-.026zm25.188-4.19v-.137l4.142-6.93 4.141-6.932.183-.05.184-.05 17.229-.002h17.229l.133.135.132.135v13.762l-.101.104-.101.104H110.94v-.138zM60.1 41.76a34.723 34.723 0 01-2.21-.249l-1.195-.178-.998-.25a28.292 28.292 0 01-1.8-.522l-.801-.271-1.35-.679-1.35-.679-.889-.685-.888-.685-.757-.811-.758-.811-.516-.774-.517-.774-.378-.777c-.672-1.383-1.102-2.77-1.376-4.444l-.134-.82-.048-1.467-.049-1.468.099-1.035c.054-.57.175-1.424.269-1.9l.17-.862.326-1.002.326-1.001.379-.772c.208-.425.617-1.139.909-1.588l.53-.815 1.017-1.04 1.019-1.038.759-.523c1.026-.707 2-1.23 3.172-1.706l.978-.397 1.3-.337 1.3-.337 1.308-.202 1.308-.202h6.498l.886.113c2.85.367 4.974.968 6.932 1.96l.898.454.705.482c1.301.89 2.312 1.89 3.235 3.204l.484.69.46.938.461.938.286.875.285.874.212 1.08.212 1.078.099 1.208.098 1.209-.054 1.247-.054 1.248-.131.91c-.262 1.825-.73 3.353-1.486 4.859l-.433.862-.506.702a16.492 16.492 0 01-1.147 1.378l-.64.678-.76.58c-1.248.953-2.08 1.421-3.646 2.047l-.964.386-1.281.332-1.282.333-1.266.18-1.265.181-1.266.085-1.266.085-1.223-.011a43.881 43.881 0 01-2.237-.083zm3.797-5.773l.759-.086.59-.18.591-.18.504-.272.504-.273.43-.447.431-.447.26-.502c.143-.276.34-.769.437-1.094l.177-.591.129-1.006.13-1.005.05-2.632.05-2.632-.097-1.673-.097-1.673-.168-.787-.168-.787-.292-.63-.293-.631-.487-.498-.487-.497-.548-.274-.549-.274-.675-.18-.675-.18-1.308-.045-1.308-.045-.82.138-.82.138-.57.22-.57.219-.405.265-.404.266-.345.4-.345.4-.235.475c-.316.639-.546 1.437-.686 2.373l-.116.777v7.94l.109.776c.06.428.185 1.068.28 1.423l.17.647.254.545.254.545.481.502.48.502.59.3.588.3.549.15c1.06.285 2.392.366 3.67.22zm37.002 5.77l-.802-.078-1.042-.215-1.042-.215-.94-.31-.942-.309-.951-.46c-1.18-.57-1.79-.943-2.764-1.685l-.76-.58-.885-.938-.884-.938-.517-.775-.517-.776-.42-.863c-.718-1.477-1.144-2.838-1.416-4.53l-.131-.82-.051-1.338-.051-1.338.1-1.079.101-1.079.169-.863.168-.863.326-1 .326-1.002.44-.898.44-.897.516-.775.517-.775.844-.898.843-.898.675-.537c.932-.741 1.601-1.157 2.83-1.76l1.052-.517.928-.311.928-.311 1.013-.21 1.013-.209 1.012-.101 1.013-.102 2.067.053 2.068.053 1.35.134c3.119.309 5.626.848 7.68 1.652l.8.313v.335l-1.106 2.648c-.608 1.456-1.138 2.683-1.179 2.727l-.073.08-1.162-.398c-1.843-.631-3.081-.907-4.958-1.104l-1.01-.105-.973.05-.973.051-.702.177-.701.177-.606.289-.607.289-.464.356-.464.356-.449.542-.449.541-.413.863-.412.863-.17.648a22.298 22.298 0 00-.314 1.467l-.145.82v3.625l.14.82c.076.452.237 1.166.356 1.587l.217.765.294.614.293.615.419.57.418.57.385.323a9 9 0 00.866.619l.482.297.761.249.76.248.66.094.66.094.648-.002c1.89-.004 4.358-.465 6.462-1.207l1-.353.122.026.123.026 1.132 2.704c.623 1.488 1.133 2.758 1.133 2.824v.12l-.239.126c-.836.443-3.458 1.186-5.33 1.512-2.874.5-7.227.732-9.536.51zm35.736.047a77.388 77.388 0 01-1.855-.17l-1.348-.136-1.183-.212c-1.533-.274-2.712-.57-3.968-.997l-1.013-.344-1.044-.51-1.044-.51-.691-.47-.691-.47-.602-.571-.603-.57-.396-.536-.397-.535-.375-.804-.374-.803-.17-.836-.169-.837.045-1.165.046-1.165.131-.54c.072-.297.247-.849.389-1.226l.259-.686.429-.673.429-.672.642-.655.642-.654.634-.434c1.622-1.113 3.58-1.884 6.194-2.438l1.189-.252 1.392-.176a69.466 69.466 0 012.532-.269l1.139-.093 2.734-.052 2.733-.053-.051-1.087-.051-1.087-.125-.663-.125-.663-.216-.467-.216-.468-.301-.316-.3-.317-.399-.207a6.074 6.074 0 00-.879-.35l-.48-.142-1.036-.066-1.035-.067-1.899.068-1.898.067-.965.14-.965.14-.966.254-.966.255-1.149.482c-.632.264-1.309.544-1.503.621l-.354.14-.06-.06c-.033-.034-.43-1.1-.882-2.367l-.822-2.305.04-.106.04-.106.522-.214c2.14-.876 5.662-1.529 9.662-1.79l1.549-.102 2.713.048 2.713.048 1.049.136c.577.075 1.527.237 2.11.36l1.06.223.987.331.988.332.784.388.785.388.673.459.673.459.649.655.65.655.479.753.48.752.297.75.297.75.216.993.215.992.032 9.467.032 9.467-.157.16-.158.162-1.472.444c-3.4 1.025-6.256 1.613-9.567 1.97l-1.187.127-2.32.03c-1.276.018-2.549.017-2.827-.002zm4.16-5.91l1.238-.093.149-.082.15-.082-.021-4.679-.022-4.679-1.646.022-1.645.022-1.163.133-1.163.132-.809.21-.81.21-.693.343-.693.344-.421.387-.421.387-.261.502-.261.502-.099.56-.1.562.054.604c.071.782.252 1.431.574 2.052l.259.5.519.496.519.496.639.323.639.323.811.21.811.211.739.078c1.063.111 1.727.113 3.127.007zM.5 41.065l-.102-.104V.427L.591.352.784.277 13.776.253 26.768.229l1.125.144c2.153.276 3.922.75 5.393 1.444l.695.328.718.479.718.479.71.697.71.697.427.632.428.633.342.722.343.722.203.69c.113.38.271 1.04.353 1.468l.15.776v3.107l-.15.766a17.413 17.413 0 01-.365 1.467l-.216.702-.331.68c-.182.374-.523.964-.757 1.31l-.426.63-.731.72-.732.721-.798.545a15.68 15.68 0 01-2.94 1.565l-.7.284.036.098c.02.054 2.244 4.152 4.94 9.107l4.905 9.01v.316l-7.152-.022-7.151-.022-1.941-3.929c-2.625-5.313-5.99-11.773-6.202-11.908l-.068-.043-2.561.043-2.56.043-.043 7.897-.042 7.897-6.248.022-6.248.022-.102-.104zm14.623-22.166c2.99-.222 5.1-.68 6.77-1.469l.694-.328.638-.451.638-.451.609-.663.608-.663.393-.77.393-.77.219-.716.219-.716-.002-.449v-.449l-.128-.553-.128-.553-.272-.523-.272-.523-.438-.449-.438-.448-.532-.304-.533-.304-.643-.214-.643-.214-.876-.157-.876-.156-3.67-.002-3.67-.001-.023 6.084c-.012 3.347-.003 6.133.019 6.193l.04.108h.361c.199 0 .893-.04 1.543-.089z" fill="#ACC9E1"/><path d="M85.414 67.055c-4.212-.174-9.933-.85-17.467-2.066-1.207-.195-5.801-.972-10.21-1.727-13.106-2.244-16.903-2.777-21.56-3.024l-1.815-.096-2.933.092c-9.122.288-17.83 1.482-29.259 4.013-.766.17-1.459.308-1.54.308H.482V52.048l.161-.087c.22-.12 4.8-1.286 6.928-1.764 5.378-1.206 10.113-1.9 15.4-2.256l1.94-.13 4.009-.08 4.008-.081 4.303.078 4.304.08 1.603.133c5.905.49 9.722 1.079 22.362 3.45 10.602 1.99 15.72 2.664 22.087 2.912l2.679.104 3.228-.105c4.28-.139 7.939-.4 13.414-.96l1.627-.167.072.072.072.073-.451.296c-.249.163-4.857 3.203-10.24 6.755-5.384 3.552-9.903 6.53-10.042 6.616l-.253.158-.38-.013c-.209-.007-1.063-.042-1.899-.076zm25.611-4.147c0-.104 7.825-13.241 8.157-13.693l.205-.28h34.653l.095.117.095.117-.022 6.895-.021 6.895-21.581.022-21.581.021v-.094zm-50.42-21.193l-1.392-.121-1.055-.093-1.139-.213c-3.96-.74-7.015-2.293-9.214-4.684l-.626-.68-.512-.766a14.457 14.457 0 01-2-4.607l-.218-.906-.128-1.018-.128-1.019v-2.673l.09-.838.088-.838.213-.983.213-.982.295-.866.294-.865.366-.745c.202-.41.594-1.094.873-1.519l.506-.772.65-.715a13.59 13.59 0 012.53-2.173l.675-.452.943-.469.943-.469 1.149-.386 1.148-.387 1.242-.255 1.241-.255 1.266-.137 1.266-.136h4.725l1.013.093c1.394.129 2.917.394 4.219.735l1.097.287.893.354c1.136.45 2.12.963 3.076 1.607l.756.508 1.019 1.039 1.017 1.038.504.777c.277.427.666 1.117.864 1.533l.36.756.329 1.022.328 1.021.173.941a21.344 21.344 0 010 7.578l-.173.94-.327 1.02-.327 1.018-.476.95-.475.95-.616.845-.616.845-.642.623c-1.114 1.081-2.27 1.88-3.745 2.586l-.825.395-1.097.37-1.097.369-1.013.218c-1.298.28-2.638.463-4.177.572l-1.223.086-1.392-.013a43.747 43.747 0 01-1.73-.041zm3.165-5.643l.802-.086.63-.176.63-.176.508-.276.508-.276.48-.49.48-.49.299-.635.299-.636.166-.73a18.56 18.56 0 00.269-1.593l.102-.863.003-3.538.003-3.539-.102-.863a15.883 15.883 0 00-.235-1.424l-.132-.56-.326-.7-.326-.7-.508-.48-.508-.482-.53-.263-.529-.263-.497-.13a12.99 12.99 0 00-1.223-.23l-.727-.099-1.14.051-1.138.05-.71.18-.708.177-.536.262-.535.261-.496.47-.495.469-.312.606-.311.606-.201.81-.2.81-.1 1.255-.099 1.255.044 3.307.045 3.306.093.66c.051.364.167.958.258 1.32l.165.66.26.557.26.557.47.519.47.519.685.344.687.344.51.13c1.076.275 2.253.347 3.498.213zm37.002 5.604A24.033 24.033 0 0199 41.383l-1.013-.209-.928-.311-.928-.312-1.055-.517-1.054-.517-.97-.66-.971-.659-1.062-1.083-1.061-1.083-.608-.937-.608-.936-.37-.79-.369-.79-.299-.917-.3-.918-.172-.895a23.456 23.456 0 01-.255-1.714l-.083-.82-.001-1.104-.002-1.104.088-.838c.048-.46.165-1.24.26-1.734l.173-.895.295-.917.295-.917.45-.923.449-.923.53-.79.529-.791.84-.9.84-.9.769-.584c1.221-.929 1.979-1.377 3.3-1.955l.928-.405.998-.294.997-.294 1.028-.194 1.028-.195 2.616.002 2.616.001 1.181.112c3.338.315 6.037.885 8.176 1.725l.598.235.029.154.029.154-1.118 2.67-1.119 2.671h-.083c-.046 0-.584-.175-1.196-.39l-1.113-.39-1.131-.253-1.131-.252-1.224-.145-1.223-.144-1.013.051-1.013.05-.701.176-.702.176-.606.288-.606.29-.533.412-.532.413-.418.528-.419.528-.331.65-.331.652-.22.687-.22.686-.16.95-.16.95-.058 1.078-.058 1.079.101 1.184.101 1.184.203.916.202.915.291.69c.16.38.418.908.573 1.176l.281.487.548.567.549.567.517.321c.615.382 1.432.708 2.258.9l.6.14 1.35.002h1.35l.971-.15a32.343 32.343 0 001.898-.362l.928-.213 1.164-.401 1.164-.402.11.123c.135.15 2.246 5.195 2.246 5.367v.123l-.232.111c-.481.231-2.178.785-3.169 1.034-1.334.335-3.29.655-5.037.824l-1.393.135-2.278.035-2.278.036-.76-.085zm35.821.044l-1.477-.129c-2.382-.207-4.863-.71-6.868-1.391l-1.064-.361-1.223-.627-1.224-.627-.841-.673-.84-.672-.532-.647-.532-.648-.373-.736-.373-.737-.183-.644-.182-.644-.044-1.165-.043-1.165.142-.773c.238-1.291.587-2.183 1.253-3.198l.34-.517.605-.614.605-.614.644-.444a15.806 15.806 0 011.47-.866l.825-.422.886-.316c2.158-.77 4.664-1.242 8.058-1.521l1.182-.098 2.742-.055 2.743-.056.027-.475.028-.475-.095-.949c-.115-1.145-.213-1.58-.49-2.19l-.211-.466-.334-.342-.334-.342-.538-.257-.538-.258-.741-.132-.74-.132-2.532.045-2.531.045-1.097.176c-1.706.274-2.994.669-4.723 1.447-.886.398-1.015.432-1.1.29-.029-.047-.41-1.084-.847-2.302l-.794-2.215.088-.108.087-.108.717-.265c2.196-.813 5.495-1.41 9.128-1.65l1.544-.103 2.886.046 2.887.046.97.139c2.062.294 3.522.661 5.021 1.262l.844.338.689.411c.378.226.997.66 1.374.964l.686.552.49.624c.926 1.176 1.452 2.265 1.778 3.68l.167.719.087.95.087.949V38.91l-.118.12-.118.12-1.295.403a50.903 50.903 0 01-9.608 2.004l-1.223.138-2.447.029c-1.346.015-2.618.013-2.827-.005zm5.058-5.825l.628-.079.067-.108.067-.108.001-4.628.001-4.628-.126-.108-.126-.107-2.047.096-2.046.096-.844.13a18.19 18.19 0 00-1.519.308l-.675.177-.688.339-.687.338-.471.44-.471.44-.256.534-.257.532-.088.561-.089.56.054.519c.029.284.106.74.172 1.012l.119.495.222.45.223.45.471.505.471.505.48.298c.919.571 2.123.923 3.68 1.074l.743.073 1.182-.043a26.724 26.724 0 001.809-.123zM.539 41.023l-.057-.058V.444L.63.4C.711.376 6.645.346 13.815.332L26.852.307l1.133.149 1.132.149.977.224c1.29.296 2.31.648 3.34 1.155l.844.415.74.539.738.538.58.624c.686.74 1.13 1.388 1.591 2.33l.34.69.214.696c.118.384.277 1.024.353 1.424l.138.728.049 1.165.048 1.165-.103.902-.103.902-.198.781-.199.782-.302.72-.301.722-.474.746-.473.745-.77.78-.771.78-.797.544c-.89.606-1.737 1.061-2.847 1.527-.409.172-.776.344-.816.382l-.071.07 4.944 9.08c2.72 4.996 4.945 9.136 4.945 9.2v.12H26.564l-1.858-3.776c-1.923-3.908-3.927-7.816-5.388-10.508l-.843-1.553-2.64-.023-2.641-.023-.068.11-.068.108-.001 7.832-.001 7.833H.595l-.056-.058zm15.597-22.13c5.154-.49 8.08-2.037 9.566-5.06l.263-.535.219-.759.218-.759-.046-.604-.047-.604-.16-.48a8.288 8.288 0 00-.353-.862l-.191-.384-.52-.522-.52-.522-.713-.359-.713-.358-.675-.176c-.37-.096-.94-.218-1.265-.271l-.591-.096-3.65-.045-3.65-.045-.126.107-.126.107V18.8l.055.148.056.148 1.02-.058a62.566 62.566 0 001.949-.146z" fill="#8EB6D6"/><path d="M84.317 66.963c-5.747-.342-11.262-1.118-26.327-3.7-10.994-1.884-14.95-2.48-19.324-2.908l-1.603-.158-3.671.006-3.67.006-1.604.104c-6.583.43-12.37 1.188-19.535 2.56-2.113.406-5.958 1.21-7.234 1.515l-.711.17-.078-.05-.078-.049.002-6.144.001-6.144.065-.104.064-.104 2.53-.648c8.807-2.255 15.054-3.195 23.278-3.501l2.354-.088h4.818l4.819.001 1.814.087c6.397.307 10.77.916 23.205 3.235 12.232 2.28 16.467 2.885 22.7 3.245l1.73.1 3.965-.05 3.966-.048 1.435-.093c2.197-.141 5.59-.42 7.974-.657l2.733-.268.581-.055-.033.098-.032.097-10.337 6.82-10.337 6.82-1.14-.012a57.883 57.883 0 01-2.32-.083zm26.762-4.027l-.04-.067 4.136-6.924 4.137-6.924h34.834l-.022 6.969-.022 6.97-21.491.02-21.492.023-.04-.067zm25.809-21.255c-3.246-.152-6.289-.702-8.818-1.594l-.886-.313-.964-.47-.965-.472-.72-.49-.72-.49-.625-.607-.626-.608-.367-.526-.367-.526-.296-.64-.296-.64-.173-.69-.172-.69-.051-.734-.051-.733.099-.777c.25-1.97.87-3.372 2.075-4.695l.506-.556.673-.511.672-.512 1.1-.551 1.099-.552.886-.294c1.864-.618 4.051-1.048 6.624-1.3l1.351-.133 2.109-.086c1.16-.047 2.618-.086 3.24-.087h1.13l-.048-1.317-.047-1.316-.171-.664c-.211-.822-.353-1.106-.796-1.598l-.348-.387-.467-.24-.468-.24-.675-.162-.675-.161-2.278.005-2.278.006-.971.11c-.534.06-1.367.186-1.852.28l-.881.172-.975.33c-.536.18-1.412.525-1.946.764l-.97.436-.099-.102-.1-.102-.777-2.178-.777-2.178.098-.12.097-.12.61-.224c2.009-.738 4.707-1.272 7.91-1.565l1.476-.135 2.279-.053 2.278-.053 1.477.1 1.476.102 1.17.173 1.169.172 1.116.293 1.117.293.879.356.878.356.707.405.707.405.682.561.683.561.496.604c1.097 1.337 1.736 2.88 1.994 4.818l.09.675v18.552l-.275.117c-.151.064-1.02.334-1.931.6-3.894 1.14-7.433 1.754-11.221 1.95-1.765.09-1.813.09-3.83-.004zm4.358-5.695c.481-.05.941-.11 1.022-.136l.149-.046-.022-4.805-.022-4.806-1.941.014-1.941.014-1.139.175-1.139.175-.756.226-.757.226-.578.311-.579.311-.415.381-.414.381-.318.658-.318.658v2.166l.16.475c.087.261.245.651.351.867l.192.392.388.442.388.441.484.33.484.329.718.276.717.276.717.133c.985.182 1.141.196 2.502.211l1.193.014.874-.09zm-81.484 5.643a37.548 37.548 0 01-3.402-.513l-1.038-.218-1.053-.344-1.052-.344-.78-.363c-1.124-.522-2.115-1.109-2.934-1.738l-.715-.549-.842-.896-.842-.895-.476-.732a17.165 17.165 0 01-.859-1.516l-.383-.784-.304-.894-.304-.893-.205-1.04-.205-1.041-.097-1.166-.097-1.165.056-1.078c.173-3.344.92-5.845 2.437-8.154l.51-.779.878-.921.877-.921.774-.565c.425-.31 1.115-.758 1.533-.995l.76-.43.94-.386c1.743-.714 3.724-1.194 5.979-1.45l1.013-.114 2.826.004 2.827.005 1.39.191 1.39.191.973.222c2.533.578 4.675 1.533 6.415 2.862l.633.483.72.746.719.746.514.77.515.77.396.808a13.653 13.653 0 011.09 3.036l.216.903.13 1.019.13 1.018v3.348l-.13 1.019-.13 1.018-.215.907-.216.906-.29.772c-.16.425-.483 1.149-.719 1.61l-.428.836-.531.725-.532.724-.833.817-.833.816-.716.49c-.394.27-1.038.667-1.432.88l-.716.39-.97.38c-1.633.64-3.22 1.034-5.316 1.32l-1.055.144-2.827.022c-1.555.012-2.979.006-3.164-.014zm5.105-5.68l.633-.152.615-.288.615-.289.535-.526.536-.526.258-.495.258-.494.207-.732.207-.731.114-.863.115-.862v-7.854l-.107-.744a15.74 15.74 0 00-.234-1.25l-.126-.509-.308-.647-.309-.648-.49-.491-.49-.492-.614-.298-.613-.298-.554-.138-.554-.138-.943-.078-.943-.077-.967.079-.967.079-.741.22-.74.219-.421.232-.42.232-.478.476-.478.477-.302.612-.301.612-.167.68a14.497 14.497 0 00-.258 1.458l-.09.777v7.213l.088.838c.049.461.164 1.169.257 1.572l.167.734.31.642.31.643.47.49.468.49.589.3c.73.374 1.063.486 1.884.633l.646.117 1.35-.027 1.35-.026.633-.152zm35.061 5.567c-1.907-.31-3.546-.844-5.19-1.69l-.885-.456-.732-.504a18.795 18.795 0 01-1.42-1.107l-.69-.603-.604-.719a18.407 18.407 0 01-1.086-1.455l-.482-.736-.376-.79a18.726 18.726 0 01-.682-1.691l-.305-.901-.207-1.047-.207-1.047-.088-1.267-.088-1.267.085-1.23.086-1.23.137-.82.137-.82.29-.992.291-.992.493-1.047.492-1.047.472-.722c.26-.398.733-1.03 1.051-1.405l.58-.682.667-.593a18.04 18.04 0 011.468-1.145l.802-.551.932-.476.933-.475.979-.346.979-.345.957-.216a26.504 26.504 0 011.76-.328l.801-.112 2.068.012 2.067.013 1.224.096c2.549.2 4.903.595 6.793 1.138 1.082.31 2.229.74 2.391.894l.112.108-1.113 2.665c-.612 1.466-1.138 2.693-1.169 2.728l-.057.062-.968-.35c-1.736-.625-3.598-1.023-5.572-1.192l-.976-.083-.848.082-.848.081-.666.172-.666.172-.717.36-.717.36-.763.784-.764.784-.386.776c-.462.93-.69 1.618-.918 2.767l-.17.858-.052 1.607-.051 1.607.105.982.105.983.194.783c.246.996.568 1.82 1.005 2.57l.345.593.688.668.688.667.704.354.704.354.675.184.676.184 1.148.048 1.148.048.962-.102.961-.101 1.251-.257 1.252-.257 1.111-.392c.611-.216 1.18-.4 1.264-.409l.152-.016 1.135 2.705 1.134 2.705-.044.073c-.063.105-1.209.545-2.215.85-1.56.474-3.393.825-5.758 1.101l-1.139.133-2.911.033-2.911.033-1.013-.164zm-98.011-.518l-1.392-.047-.022-20.22L.483.513l.12-.047.12-.048L14.042.403 27.358.388l1.013.154c.557.085 1.477.268 2.045.408l1.032.254.824.315c1.07.408 1.598.683 2.52 1.314l.755.517.717.763.716.763.305.474c.96 1.495 1.469 3.088 1.68 5.265l.097.993-.055.733a22.74 22.74 0 01-.186 1.554l-.13.82-.212.69-.212.69-.33.68c-.181.373-.471.897-.644 1.165l-.314.486-.67.716-.67.717-.597.458c-.327.253-.936.659-1.352.903l-.758.444-1.042.447-1.043.448.036.177c.02.098 2.245 4.233 4.945 9.19l4.91 9.012-.07.072-.07.072-7-.022-6.999-.022-1.899-3.842c-2.789-5.645-6.034-11.86-6.273-12.015l-.098-.064-1.73.01c-.95.004-2.128.033-2.615.063l-.886.054-.043 7.897-.042 7.897-4.852.003c-2.668.002-5.478-.017-6.244-.043zm12.816-21.967a27.5 27.5 0 004.192-.52l1.018-.209.876-.312c1.012-.36 1.499-.6 2.313-1.136l.584-.385.502-.489.502-.489.372-.531.371-.531.33-.72.328-.72.134-.53.133-.531v-1.104l-.13-.507-.128-.508-.26-.497-.258-.496-.361-.386a6.078 6.078 0 00-.815-.698l-.453-.313-.64-.253-.639-.253-.88-.196-.879-.196-3.923-.003-3.924-.002-.022 6.251-.022 6.252.106.067.105.066.17-.034c.093-.019.677-.058 1.298-.087z" fill="#639AC7"/><path d="M85.326 66.97c-5.774-.262-11.29-1.012-26.324-3.58-14.626-2.499-18.175-3.002-22.833-3.235l-1.738-.087-2.946.085c-6.39.184-12.007.77-19.132 1.994-3.265.561-8.645 1.633-10.969 2.186a6.05 6.05 0 01-.696.136H.567V52.055l.274-.09c.539-.179 5.03-1.3 6.73-1.682 4.444-.998 8.467-1.645 12.615-2.032 2.817-.263 4.454-.348 8.65-.449l3.839-.092 3.46.054c3.91.06 5.843.152 8.522.4 5.266.489 8.7 1.036 21.096 3.361 8.58 1.61 13.734 2.352 18.838 2.714l1.877.132 2.342.055 2.342.055 2.785-.101c4.008-.146 8.259-.46 12.869-.95l1.476-.157.067.06.066.061-10.319 6.81-10.319 6.811-.464.012a45.65 45.65 0 01-1.987-.057zm25.788-4.119c.003-.035 1.855-3.152 4.114-6.926l4.108-6.861 17.215-.024 17.214-.023.19.047.191.047-.022 6.88-.022 6.882-21.496.022-21.497.021.005-.065zM60.521 41.633c-4.49-.35-7.584-1.265-10.252-3.033-1.399-.926-2.493-1.996-3.477-3.398l-.461-.658-.395-.783a18.9 18.9 0 01-.681-1.543l-.286-.76-.218-.906-.218-.907-.127-1.018-.129-1.019v-2.673l.09-.838.089-.838.213-.983.213-.982.296-.873.297-.873.425-.85.426-.848.462-.662c.255-.363.709-.943 1.01-1.287l.546-.627.833-.685.834-.686.825-.497.825-.497.962-.417.962-.417.937-.29c1.058-.327 2.283-.592 3.615-.781l.907-.13 1.744-.085 1.745-.085 1.787.084 1.787.084.974.13c2.537.34 4.634.954 6.5 1.902l.773.393.805.549.804.548.74.708.739.708.615.836.615.835.487.973.486.972.327 1.019.327 1.019.173.94a21.298 21.298 0 010 7.578l-.173.94-.322 1.004-.322 1.004-.359.73c-.465.95-.995 1.786-1.636 2.58l-.515.638-.675.6a17.59 17.59 0 01-1.432 1.117l-.757.518-.946.469-.945.468-1.15.387-1.148.387-1.241.254c-.683.14-1.754.316-2.38.391l-1.14.139-2.194.029c-1.207.016-2.384.014-2.616-.004zm3.249-5.474c.44-.047 1.03-.145 1.308-.217l.506-.13.619-.3.619-.298.522-.54.522-.54.278-.54.277-.539.197-.799.197-.798.09-.906.09-.907.054-2.244.053-2.244-.093-1.898-.093-1.899-.165-.82-.166-.82-.339-.701-.34-.702-.459-.47-.46-.47-.49-.266a7.097 7.097 0 00-1.042-.438l-.551-.172-.835-.108-.836-.107-1.103.054-1.102.054-.718.178-.717.178-.603.304-.602.304-.476.483-.476.483-.334.698-.334.698-.126.508c-.07.28-.174.843-.233 1.252l-.107.743v7.768l.106.785a16.6 16.6 0 00.274 1.467l.17.682.256.537.257.537.43.482.431.482.373.262.373.262.648.242.648.241.633.096c1.257.191 1.79.208 2.869.093zm37.044 5.434a18.4 18.4 0 01-4.388-1.045l-.717-.264-1.055-.554-1.054-.553-.802-.58-.802-.58-.928-.95-.928-.949-.536-.777-.536-.776-.538-1.122-.538-1.122-.246-.777c-.3-.947-.573-2.31-.684-3.409l-.084-.82-.001-1.104-.002-1.103.088-.839c.12-1.153.383-2.463.683-3.409l.253-.795.534-1.122.535-1.122.536-.776.536-.777.928-.95.928-.949.802-.58.802-.579.97-.514c1.699-.9 3.352-1.46 5.284-1.793l.918-.159 2.574.002h2.573l1.182.113c3.301.313 5.722.815 8.004 1.66l.73.27v.123c0 .135-2.09 5.21-2.193 5.325l-.062.07-1.141-.396-1.141-.396-1.128-.252-1.128-.253-1.224-.144-1.223-.144-1.013.05-1.013.052-.717.177-.717.178-.773.39-.773.39-.561.526-.561.527-.321.483a9.095 9.095 0 00-1.066 2.23l-.215.67-.16.95-.159.95-.058 1.078-.058 1.079.1 1.184.102 1.184.198.899.199.898.23.593c.125.326.381.865.568 1.197l.34.604.64.647.64.648.486.291c.577.346 1.39.659 2.21.85l.595.137 1.308.002 1.308.003 1.013-.15a30.87 30.87 0 001.94-.363l.929-.213 1.127-.39c.619-.215 1.164-.379 1.209-.363l.082.028 1.09 2.62c.6 1.442 1.091 2.656 1.091 2.698v.077l-.368.162c-1.812.794-4.848 1.469-7.986 1.775l-1.393.135-2.278.035-2.278.035-.718-.082zm35.652.039c-2.95-.188-5.982-.748-8.185-1.511l-1.013-.351-.964-.468-.964-.468-.808-.55-.808-.551-.61-.616-.611-.616-.327-.493c-.18-.272-.445-.734-.59-1.027l-.262-.532-.179-.633-.179-.632-.045-1.102-.046-1.103.104-.667.104-.667.243-.776.243-.777.372-.647.373-.648.422-.49c.935-1.088 1.878-1.785 3.425-2.53l.939-.453.801-.268c2.058-.686 4.502-1.137 7.553-1.393l1.097-.092 2.827-.052 2.826-.052.118-.096.117-.095-.055-1.037c-.063-1.196-.161-1.88-.363-2.54l-.144-.469-.258-.392-.258-.393-.405-.311-.404-.311-.524-.186-.524-.186-.633-.098-.633-.098-2.489.047-2.489.047-.886.135c-1.756.268-3.15.682-4.869 1.444-.519.23-.979.419-1.022.419h-.077l-.771-2.157c-.424-1.187-.771-2.232-.771-2.322v-.165l.722-.268c2.15-.795 5.466-1.403 8.985-1.645l1.311-.09 2.403-.002h2.402l1.054.092c1.367.12 2.51.295 3.702.568l.961.22.854.304c1.097.39 2.032.848 2.878 1.411l.675.449.802.832.802.833.341.603c.188.332.446.846.575 1.143l.233.54.205.826.205.826.085.921.085.921.001 8.858v8.857l-.106.09c-.158.133-2.183.752-3.859 1.18-2.669.68-4.484 1.013-7.132 1.306l-1.181.13-2.447.028c-1.346.015-2.675.013-2.954-.004zm5.19-5.65l.633-.08.105-.146.106-.145v-9.276l-.133-.136-.133-.135-.141.002c-.078 0-1.015.04-2.083.085l-1.94.082-.844.132a18.19 18.19 0 00-1.519.308l-.675.176-.766.379-.766.378-.469.472-.469.472-.217.47-.217.47-.092.59-.093.591.09.751.089.751.119.345c.178.516.37.876.735 1.377l.33.453.599.43.598.43.646.254.645.254.69.143c.379.079 1.024.176 1.433.216l.743.072 1.182-.043a27.055 27.055 0 001.814-.122zm-114.93 5.043l-.127-.036-1.917-3.902c-2.375-4.836-5.542-10.952-6.076-11.735l-.161-.238h-5.3l-.086.167-.088.167v15.548l-6.18-.023-6.182-.022-.021-20.19L.566.568.63.51.693.45l13.08-.03 13.08-.03 1.131.151c3.444.46 5.908 1.442 7.794 3.107l.488.43.53.678.53.677.387.757c.487.954.776 1.78.996 2.851l.173.841.052 1.258.052 1.259-.105.856-.105.856-.205.82-.206.82-.497 1.036-.497 1.035-.56.712-.56.711-.542.47c-1.204 1.044-2.404 1.775-3.993 2.43l-.898.372.006.155.005.156 4.814 8.846c2.648 4.866 4.862 8.94 4.92 9.052l.103.205-.114.074-.114.074-6.793-.009c-3.736-.004-6.85-.024-6.92-.044zM15.039 19.071c.65-.048 1.745-.166 2.435-.263l1.254-.175.969-.255.968-.256.802-.337.802-.338.685-.417.685-.417.72-.737.721-.737.345-.6a9.409 9.409 0 00.919-2.247l.128-.505v-.349a6.265 6.265 0 00-.123-.931l-.121-.584-.31-.603-.31-.604-.532-.508-.53-.508-.609-.311-.607-.312-.56-.17c-.307-.093-.92-.233-1.36-.311l-.802-.142-3.676-.044-3.675-.045-.143.146-.143.146v12.168l.088.167.087.167h.355c.196 0 .888-.04 1.538-.088z" fill="#4687BD"/><path d="M84.992 66.917c-7.224-.478-10.968-.995-26.75-3.697-11.168-1.913-14.926-2.483-19.085-2.898l-1.757-.175-2.49-.05-2.488-.052-2.321.1c-6.364.277-12.332.97-19.492 2.264-1.999.36-6.959 1.37-8.819 1.792-.603.138-1.125.233-1.16.211l-.063-.04V52.125l.19-.081c.274-.117 3.201-.876 5.156-1.336 6.624-1.56 11.688-2.316 18.281-2.728l1.477-.092 6.118-.048 6.117-.047 2.152.1c6.725.31 10.947.91 25.216 3.582 8.991 1.683 13.31 2.322 18.832 2.786l1.815.152 4.767-.002 4.768-.002 2.236-.15c2.692-.182 5.445-.416 8.384-.713 1.2-.12 2.199-.203 2.219-.181.021.021-4.568 3.082-10.198 6.802L87.862 66.93l-1.224.008a34.477 34.477 0 01-1.646-.02zm26.201-4.08c0-.076 7.699-13.006 8.034-13.493l.163-.237h34.67v13.809h-42.867v-.079zm25.611-21.243c-3.112-.158-5.926-.653-8.396-1.477l-1.055-.352-1.024-.496c-1.191-.578-1.954-1.067-2.761-1.768L122.99 37l-.453-.562-.453-.562-.336-.66-.335-.659-.228-.772-.228-.773-.007-1.251-.007-1.252.155-.69c.085-.38.267-.99.404-1.356l.249-.665.429-.673.429-.672.6-.61.6-.612.666-.457.667-.458.936-.46.937-.46.886-.297c3.033-1.013 6.298-1.44 12.152-1.592l2.32-.06-.013-1.338-.013-1.337-.177-.683-.177-.683-.215-.376a4.05 4.05 0 00-.51-.677l-.294-.3-.482-.249-.482-.248-.675-.161-.675-.162-2.362.01-2.363.011-1.111.139c-1.98.247-3.383.64-5.26 1.472l-1.055.468-.057-.057c-.031-.032-.407-1.04-.836-2.24l-.779-2.184.085-.086c.047-.048.48-.224.962-.392 3.032-1.053 7.619-1.665 12.507-1.67l1.588-.002 1.239.091c.682.05 1.766.168 2.409.262l1.169.172 1.116.292 1.117.293.879.354.878.355.675.399c.899.53 1.486.981 2.113 1.623l.519.53.351.529c.675 1.017 1.101 2.036 1.415 3.386l.151.647.028 9.683.028 9.683-.826.26c-4.373 1.376-8.251 2.108-12.386 2.337-1.669.093-2.173.093-4.05-.003zm4.426-5.526l.967-.093.152-.083.152-.083-.022-4.851-.021-4.851-1.899.012-1.899.012-1.055.142-1.054.14-.802.215-.802.213-.717.36-.717.358-.511.526-.51.525-.185.406a4.945 4.945 0 00-.268.777l-.083.37-.002.655-.002.655.163.653.163.653.225.454.225.454.435.474.434.474.487.324.487.324.709.263.709.262.703.13c.963.18 1.131.194 2.432.21l1.14.013.967-.093h-.001zm-81.51 5.47c-.767-.06-2.348-.298-3.337-.501l-1.016-.209-1.187-.39-1.187-.392-1.257-.644-1.256-.645-.89-.685-.89-.685-.713-.768-.714-.767-.517-.773-.516-.773-.385-.785-.384-.785-.304-.893-.305-.893-.204-1.04-.205-1.041-.097-1.166-.098-1.165.056-1.122.055-1.122.126-.863c.34-2.331 1.046-4.253 2.238-6.09l.53-.814.975-.996.976-.995.76-.522c2.384-1.64 4.923-2.541 8.497-3.016l1.038-.138 2.194-.047 2.194-.047 1.35.1c3.029.224 5.396.758 7.511 1.693 1.834.81 3.055 1.66 4.38 3.048l.585.612.5.715.501.715.419.852a13.65 13.65 0 011.112 3.078l.216.903.133 1.036.134 1.035.002 1.602.003 1.603-.14 1.116-.14 1.117-.24.953a14.126 14.126 0 01-1.16 3.095l-.389.77-.504.698c-.277.383-.773.983-1.102 1.332l-.598.635-.76.583c-2.546 1.955-5.687 3.035-10.041 3.452l-.929.09-2.32-.016c-1.276-.008-2.492-.028-2.7-.045zm5.147-5.501l.633-.15.7-.342.701-.343.481-.492.48-.493.27-.519.269-.519.207-.732.208-.732.114-.862.114-.863v-7.853l-.107-.744a15.333 15.333 0 00-.235-1.251l-.127-.508-.292-.633-.292-.633-.528-.54-.529-.54-.632-.307-.633-.307-.566-.141-.566-.142-.932-.068-.932-.07-.957.071-.957.071-.75.222-.75.223-.424.23-.423.232-.528.532-.528.533-.334.72-.334.72-.184.863-.184.863-.038 3.919-.037 3.919.094 1 .093 1 .175.734.175.734.3.647.3.647.558.561.558.561.571.283.572.283.693.165c1.014.242 1.076.247 2.55.223l1.35-.022.633-.15zm35.061 5.392c-2.876-.468-5.27-1.473-7.428-3.117l-.763-.581-.84-.895-.842-.894-.516-.775-.517-.775-.427-.871-.427-.872-.304-.893-.303-.892-.207-1.043-.206-1.042-.092-1.264-.092-1.264.09-1.315.091-1.314.208-1.05.208-1.05.303-.892.304-.893.427-.871.427-.872.517-.774.516-.775.802-.855.802-.856.675-.536c.92-.73 1.512-1.104 2.686-1.695l1-.503 1.034-.344 1.034-.344 1.047-.215 1.047-.215 1.241-.1 1.24-.1 2.135.096 2.135.097 1.214.132c1.621.176 3.38.492 4.763.854l1.135.298.832.316c.458.174.864.346.902.383l.071.067-1.076 2.578c-.592 1.418-1.108 2.621-1.148 2.675l-.073.098-.947-.341a21.514 21.514 0 00-5.526-1.178l-.95-.073-.864.07-.864.07-.675.176-.676.177-.59.288-.591.288-.532.412-.533.412-.418.529-.418.528-.343.673c-.442.868-.707 1.675-.94 2.86l-.189.955.002 2.071.002 2.071.149.808c.19 1.033.504 2.053.868 2.817l.287.604.431.587.43.587.518.432.517.433.675.334.675.335.718.2.717.198 1.73-.008 1.73-.008 1.012-.188c1.348-.25 2.518-.556 3.544-.927.465-.168.901-.312.97-.32l.125-.015 1.114 2.632c.613 1.448 1.116 2.66 1.119 2.691.008.082-1.139.525-2.169.838-1.551.471-3.45.837-5.673 1.093l-1.224.14-2.911.034-2.911.033-1.013-.165zm-98.074-.5l-1.287-.025V.598L.69.55.814.5 14.13.488 27.443.474l1.181.194c2.603.429 4.38 1.062 6.001 2.137l.685.455.605.584.605.584.42.57.419.568.37.734.37.733.216.668c.289.888.45 1.715.566 2.914l.097.992-.055.734a22.6 22.6 0 01-.186 1.554l-.131.82-.212.69-.211.69-.326.67c-.18.37-.485.91-.679 1.202l-.352.532-.62.664-.62.664-.739.537c-.974.708-1.609 1.066-2.932 1.65l-1.097.484.005.208.005.207 4.91 9.012c2.701 4.956 4.91 9.024 4.91 9.04 0 .016-3.15.03-7.003.03h-7.003L25.07 37.78c-2.272-4.646-5.624-11.138-6.426-12.442L18.437 25l-2.654.056-2.654.055-.079.05-.079.05v15.783l-4.915-.019a649 649 0 01-6.202-.045zm14.6-21.943a32.73 32.73 0 002.087-.313l1.139-.212 1.011-.345 1.012-.346.697-.378c.898-.49 1.538-.997 2.282-1.812l.6-.656.465-.968.465-.968.13-.53.13-.53v-1.104l-.129-.508-.129-.507-.269-.525-.269-.525-.513-.521-.513-.522-.718-.364-.717-.363-.819-.213-.819-.212-.906-.094-.907-.093-3.375.026-3.376.026-.021 6.3-.022 6.3.114.087.116.087 1.153-.058c.635-.032 1.58-.104 2.101-.159z" fill="#2B76B3"/><path d="M85.18 66.882c-5.762-.27-11.545-1.067-27.19-3.747-13.425-2.3-17.358-2.85-21.898-3.061l-1.73-.08-2.827.076-2.826.077-1.941.134c-6.901.477-13.766 1.498-22.573 3.357-1.23.26-2.495.533-2.81.609a7.48 7.48 0 01-.655.136H.65l.022-6.149.021-6.15 1.899-.495c7.735-2.017 13.474-3 20.294-3.477l1.772-.123 4.6-.102 4.598-.102 3.882.099 3.881.099 1.604.132c5.174.427 9.947 1.138 18.837 2.808 14.696 2.76 19.543 3.41 26.775 3.587l2.317.056 2.743-.1c3.922-.145 7.002-.364 11.757-.837 1.199-.119 2.253-.205 2.343-.19l.163.027-10.19 6.73-10.19 6.732-.55.012c-.301.007-1.223-.02-2.049-.058zm30.086-10.849c2.232-3.738 4.099-6.825 4.149-6.86l.09-.063 17.257.02 17.256.02.022 6.84.021 6.84h-42.854l4.059-6.797zM60.479 41.547c-3.846-.337-6.018-.861-8.433-2.032l-1.049-.509-.85-.574-.849-.575-1.057-1.085-1.058-1.085-.471-.734a14.2 14.2 0 01-1.877-4.41l-.217-.898-.128-1.018-.128-1.018v-2.674l.089-.838.089-.838.214-.986a15.44 15.44 0 011.052-3.195l.332-.729.564-.868.564-.868.805-.85.805-.852.713-.548c1.282-.985 2.85-1.796 4.593-2.377l1.002-.333.98-.211a33.59 33.59 0 011.94-.347l.959-.136 1.615-.09 1.615-.089 1.393.053c.765.028 1.955.109 2.643.178l1.251.126.9.176c1.178.23 2.006.447 2.978.778l.793.27 1.026.499 1.026.498.661.452c.364.25.976.724 1.36 1.056l.697.603.536.659a13.23 13.23 0 011.655 2.598l.358.73.323 1.004.322 1.004.172.94c.095.518.21 1.343.258 1.835l.086.894v2.12l-.086.895a26.274 26.274 0 01-.256 1.824l-.17.93-.308.968-.308.967-.471.95-.472.95-.419.605-.419.604-.758.805-.759.805-.593.455c-.326.25-.929.66-1.34.912l-.747.458-.96.415-.958.416-.975.302-.975.303-1.074.213c-.59.117-1.586.276-2.213.353l-1.139.14-2.236.03c-1.23.015-2.407.013-2.616-.006zm4.177-5.428c.767-.15 1.493-.43 2.047-.79l.444-.289.373-.398.374-.398.296-.577.297-.577.17-.643c.093-.354.211-.896.261-1.205l.092-.56.072-2.175.071-2.174-.072-2.486-.072-2.487-.169-.813-.169-.813-.327-.697-.327-.697-.415-.453-.415-.452-.506-.306-.506-.306-.633-.204-.633-.204-.76-.095-.759-.094h-.72c-.843-.001-1.875.12-2.577.303l-.5.13-.597.298-.596.298-.387.348-.386.348-.307.472-.306.472-.212.576a9.632 9.632 0 00-.329 1.146l-.117.57-.1 1.275-.1 1.275.045 3.256.046 3.257.092.69.093.69.213.772.212.771.271.523.271.524.506.519.507.518.633.315.632.314.57.142c.314.078.864.176 1.224.218l.654.076.97-.044.97-.043.591-.116zm36.116 5.385a21.99 21.99 0 01-1.603-.257l-.928-.186-1.13-.378-1.13-.377-.854-.419c-1.04-.51-1.82-.995-2.691-1.673l-.66-.515-.743-.767-.741-.767-.562-.8-.561-.8-.544-1.122-.543-1.122-.252-.795c-.294-.927-.564-2.25-.684-3.348l-.085-.776v-1.19l-.002-1.19.09-.839c.194-1.803.648-3.487 1.348-5.003l.41-.885.453-.711c2.226-3.486 5.88-5.791 10.441-6.586l.802-.14 1.831-.046 1.83-.046 1.629.101 1.629.102 1.351.175c2.404.31 4.592.827 6.223 1.47l.654.258v.087c0 .068-2.085 5.13-2.155 5.232-.009.014-.582-.168-1.273-.403l-1.255-.427-1.055-.219a37.42 37.42 0 00-1.814-.328l-.76-.109-1.392.001-1.393.001-.759.193-.759.194-.76.378-.759.38-.441.386a6.852 6.852 0 00-1.404 1.678l-.304.512-.292.774-.292.774-.172.862-.172.862-.1 1.267-.101 1.267.1 1.275.101 1.275.2.905.2.906.267.708.267.709.407.638.408.637.514.511.514.512.464.287c.906.563 1.917.895 3.211 1.057l.759.095.886-.057a30.96 30.96 0 002.051-.228l1.164-.17.945-.251c.52-.138 1.337-.39 1.814-.561l.869-.31.065.04c.035.022.552 1.208 1.149 2.635l1.085 2.594-.049.05c-.026.027-.479.205-1.005.395-2.435.878-5.288 1.397-8.931 1.625l-1.393.087-1.476-.011-1.477-.011-.675-.072zm35.188.003c-2.755-.198-5.45-.714-7.64-1.463l-1.052-.359-.959-.466-.959-.466-.729-.494-.728-.495-.728-.736-.729-.737-.34-.542-.341-.542-.253-.623-.253-.623-.133-.665-.134-.666.001-.974.001-.975.157-.777.158-.776.252-.665.253-.664.471-.724.471-.724.591-.57.59-.57.65-.448.651-.449.851-.413c2.618-1.268 6.01-1.97 10.809-2.237l1.519-.085 1.883-.001 1.883-.002.163-.09.164-.089v-.548c0-.302-.04-.951-.089-1.443l-.089-.894-.129-.518-.129-.517-.222-.418-.221-.418-.447-.417-.447-.418-.485-.188-.485-.188-.717-.13-.717-.13-2.49.046-2.489.045-.953.139c-1.771.257-3.126.657-4.894 1.444l-.966.43-.063-.071c-.034-.04-.395-1.012-.802-2.161l-.739-2.09.046-.121.046-.122 1.04-.348c2.249-.75 5.002-1.233 8.494-1.487l1.293-.094h2.462l2.462-.001 1.012.095c2.136.203 3.73.516 5.287 1.037l.984.33.788.404c.434.222 1.049.58 1.367.796l.578.392.653.657.654.656.361.551c.199.303.511.878.694 1.277l.333.726.204.823.205.824.088.963.089.964-.024 8.843-.025 8.843-1.013.327c-3.49 1.127-7.694 1.953-11.307 2.223l-1.181.088-1.815-.012a55.992 55.992 0 01-2.742-.079zm5.644-5.44c.412-.045.783-.103.823-.129l.073-.046v-9.809l-.193-.05-.193-.05-2.022.082-2.022.082-.844.131c-.464.073-1.148.21-1.519.307l-.675.175-.787.385-.786.385-.485.497-.485.497-.226.49-.226.489-.082.597-.083.596.082.736.081.735.118.342c.065.188.22.548.345.8l.227.459.394.434.394.433.494.33.494.328.646.255.647.255.7.145c.385.08 1.049.176 1.475.215l.776.07 1.054-.042a31.647 31.647 0 001.805-.124zm-114.942 4.82c-.047-.06-.98-1.934-2.074-4.165-1.93-3.937-3.587-7.166-5.224-10.184l-.795-1.467-2.758-.022-2.759-.023-.082.222-.083.223v15.437H.65V.518L9.28.496C14.025.484 19.94.476 22.422.48l4.515.005 1.097.149c.603.081 1.529.247 2.057.368l.96.22.854.302.854.302.74.38c.407.208.975.542 1.262.742l.523.363.692.679.692.68.436.644.435.645.326.71.326.71.212.75.212.75.131.9.13.902v2.027l-.132.914-.133.914-.257.823-.257.823-.296.604c-.163.332-.484.883-.714 1.224l-.417.62-.735.724-.734.724-.63.433c-.93.639-1.648 1.027-2.759 1.497l-.994.42-.079.127-.079.127 3.493 6.416 4.946 9.089 1.453 2.672-.04.068-.042.068H26.746l-.084-.108zM14.98 19.157a45.894 45.894 0 002.493-.263l1.254-.174.943-.249c2.26-.596 3.761-1.434 5.006-2.795l.52-.568.347-.598.347-.598.307-.85.307-.85-.002-.82-.003-.82-.187-.56-.187-.562-.38-.576-.38-.576-.36-.302a7.138 7.138 0 00-.902-.605l-.543-.304-.644-.214-.644-.214-.917-.152-.917-.153-3.684-.005-3.685-.006-.07.072-.071.072-.023 6.154-.023 6.153.085.226.083.226h.345c.19 0 .903-.04 1.585-.09z" fill="#1366AA"/><path d="M85.33 66.83c-7.172-.436-11.264-.997-27.256-3.739-12.398-2.125-16.446-2.711-20.927-3.031l-1.434-.102-3.334.051-3.333.052-1.898.132c-7.426.516-14.8 1.62-23.71 3.547-1.414.306-2.62.557-2.679.557H.651V52.128h.046c.025 0 1.079-.269 2.341-.597 7.158-1.862 12.939-2.855 19.342-3.325l1.772-.13 3.038-.099 3.038-.099 5.147.046 5.147.047 1.308.096c6.503.478 10.37 1.058 23.628 3.543 8.653 1.622 13.266 2.303 18.437 2.723l1.772.143 2.269.056 2.268.055L93 54.53l2.794-.057 2.152-.139c2.334-.15 5.102-.384 8.121-.684l1.918-.19-.062.063c-.034.035-4.598 3.056-10.142 6.713l-10.08 6.65-.975-.016a43.542 43.542 0 01-1.395-.04zm26.814-5.449l4.07-6.817 3.207-5.37h34.555V62.83h-42.695l.863-1.449zM59.973 41.455c-3.568-.358-5.719-.906-8.017-2.042l-.886-.438-.867-.594-.867-.593-.772-.749-.77-.748-.495-.634-.494-.634-.462-.803-.462-.803-.367-.937a15.429 15.429 0 01-.854-3.048l-.133-.731-.087-1.267-.087-1.266.088-1.199c.049-.659.15-1.566.224-2.015l.137-.817.29-.993.292-.992.461-.986.462-.986.483-.738.483-.737.802-.856.801-.857.635-.494a14.07 14.07 0 012.66-1.647l.848-.41 1.009-.345 1.008-.343.97-.22a25.65 25.65 0 013.967-.569l1.223-.088h2.785l1.223.088c.673.048 1.746.165 2.384.26l1.16.171 1.131.292c1.458.376 2.383.72 3.637 1.354l1.013.512.783.573.784.573.697.698c.8.803 1.284 1.431 1.897 2.468l.434.733.334.82a16.02 16.02 0 01.949 3.366l.173.992.044 1.862.044 1.861-.1.9a26.29 26.29 0 01-.269 1.764l-.168.863-.29.887-.288.888-.39.795a18.108 18.108 0 01-.86 1.53l-.473.733-.975.999-.976.998-.845.572-.845.572-.97.474-.968.474-1.013.343-1.013.342-.97.22a28.05 28.05 0 01-3.755.568l-1.013.09-2.11-.014c-1.16-.007-2.242-.026-2.404-.042zm5.097-5.37c.368-.1.879-.281 1.136-.402l.469-.22.448-.353.447-.353.403-.616.403-.616.231-.716.232-.716.135-.836.135-.835.04-3.615.038-3.614-.096-1.113-.096-1.113-.203-.818-.203-.818-.277-.539-.277-.54-.508-.518-.508-.518-.424-.232-.424-.23-.747-.222-.747-.222-1.007-.094-1.007-.094-1.005.1-1.005.099-.614.173-.615.174-.548.275-.547.274-.515.518-.514.518-.31.647-.308.648-.162.652a16.37 16.37 0 00-.27 1.51l-.11.858.004 3.625.004 3.625.143 1.079.144 1.079.273.82.274.82.322.496.322.496.392.353.392.352.676.33.676.331.633.134c.348.074.727.152.843.174.117.021.876.027 1.688.012l1.477-.026.667-.183zm35.196 5.299a17.838 17.838 0 01-3.418-.839l-.97-.34-.927-.473-.926-.472-.803-.55-.804-.55-.666-.612a14.128 14.128 0 01-2.257-2.633l-.508-.77-.407-.87c-.682-1.454-1.135-3.064-1.348-4.795l-.09-.733-.001-1.56-.001-1.558.126-.92c.159-1.156.318-1.87.65-2.91l.26-.82.405-.863.405-.863.51-.777a14.034 14.034 0 012.256-2.638l.666-.612.802-.546c1.076-.734 1.721-1.085 2.826-1.538 1.466-.601 2.812-.955 4.515-1.188l.717-.097 2.052.007 2.053.007 1.154.091c3.606.284 6.887.957 8.836 1.812l.365.16-1.058 2.53c-.582 1.391-1.087 2.562-1.122 2.6l-.063.07-.87-.31c-1.703-.606-3.553-.996-5.542-1.169l-1.104-.096-.858.097-.858.097-.638.166-.638.167-.618.304-.618.304-.549.452-.548.452-.428.548-.429.548-.38.8-.38.8-.244.985-.243.985-.103.9-.102.9.048 1.73.049 1.73.172.857c.398 1.985 1.052 3.367 2.085 4.407.841.847 1.846 1.4 3.111 1.715l.591.147.843.072.844.073.928-.075a20.85 20.85 0 003.163-.475l.969-.211 1.167-.398 1.168-.397.065.077c.036.042.534 1.198 1.106 2.569l1.041 2.493-.153.115c-.085.063-.613.27-1.175.459-2.015.68-3.788 1.043-6.591 1.354l-1.182.13-2.742.035-2.742.035-.844-.122zm35.652.074c-2.324-.21-4.35-.549-6.134-1.026l-1.114-.298-.891-.342a21.83 21.83 0 01-1.741-.778l-.85-.435-.646-.454-.645-.453-.619-.599-.618-.598-.451-.696-.451-.697-.209-.517c-.115-.285-.277-.79-.36-1.122l-.151-.604-.001-1.08-.001-1.078.104-.561c.23-1.25.716-2.413 1.393-3.334l.389-.53.536-.512.535-.512.612-.416a15.46 15.46 0 011.427-.828l.815-.412.861-.306c1.807-.64 4.287-1.137 6.944-1.39l1.392-.132 2.405-.085a155.17 155.17 0 013.183-.086l.777-.001.077-.151.077-.151-.068-1.256-.068-1.256-.126-.556a7.17 7.17 0 00-.299-.968l-.172-.41-.402-.44-.402-.44-.41-.212a7.085 7.085 0 00-1.057-.398l-.646-.185-2.531.001h-2.532l-1.181.155-1.181.153-1.097.288-1.097.287-1.266.532a56.34 56.34 0 01-1.399.575l-.132.042-.491-1.365c-.269-.751-.618-1.726-.774-2.167l-.283-.802.4-.176c1.393-.615 4.393-1.262 7.362-1.589l1.139-.125 2.342-.105 2.341-.104 1.878.103 1.878.103.97.133c1.989.273 3.951.823 5.383 1.51l.716.343.727.493.726.493.636.65.635.651.405.626.405.625.283.67.283.669.172.69c.094.38.211 1.02.259 1.422l.087.731v18.252l-.95.302c-3.117.99-6.208 1.66-9.598 2.084l-1.139.142-2.996.024c-1.648.013-3.166.008-3.375-.011zm5.48-5.306l.975-.096.106-.088.106-.088-.021-4.93-.022-4.93-1.308-.027-1.308-.027-1.207.097c-1.349.108-2.263.256-3.214.52l-.642.18-.687.339-.688.339-.472.441-.472.441-.31.642-.31.642-.039.894-.039.894.142.653.142.654.263.543.262.543.598.605.597.605.633.314c.796.395 1.601.645 2.574.799l.759.12 1.304.008 1.303.009.975-.096zM3.373 40.843L.65 40.82V.625L11.05.56l10.4-.064 2.996.044 2.996.045 1.112.177c2.663.424 4.539 1.112 6.2 2.273l.73.51.665.709c.828.882 1.115 1.307 1.634 2.418l.41.88.21.819c.115.45.254 1.13.31 1.51l.1.69-.002 1.166-.002 1.165-.139.863-.139.863-.296.906-.296.906-.3.561c-.165.31-.487.821-.717 1.139l-.417.576-.713.69-.713.691-.696.471c-.84.568-1.665 1-2.849 1.492l-.886.369.006.199.005.2 4.91 9.009c2.7 4.955 4.91 9.024 4.91 9.04 0 .017-3.104.028-6.898.024l-6.899-.006-1.791-3.683c-1.858-3.82-3.814-7.645-5.393-10.544l-.916-1.683h-5.4l-.149.062-.147.062v15.799l-3.397-.02c-1.868-.011-4.62-.031-6.117-.045zM15.08 19.2c1.13-.07 2.716-.271 3.767-.479l.896-.177.854-.286c1.105-.37 1.834-.711 2.594-1.214l.614-.407.541-.53.541-.53.36-.517c.475-.682.815-1.39 1.1-2.287l.233-.734-.003-.607-.002-.608-.134-.536c-.164-.654-.391-1.127-.825-1.722l-.33-.453-.599-.43-.598-.43-.65-.256-.651-.256-.88-.197-.88-.196-4.05-.003-4.05-.002-.022 6.377-.021 6.377.1.123.1.124.596-.047c.329-.026.958-.07 1.399-.096z" fill="#075FA7"/></svg>