<svg width="29" height="804" fill="none" xmlns="http://www.w3.org/2000/svg"><rect x="16" width="804" height="5" rx="2.5" transform="rotate(90 16 0)" fill="#D1D1D1"/><rect x="16" width="804" height="5" rx="2.5" transform="rotate(90 16 0)" fill="#F2F2F2"/><circle cx="13" cy="37" r="12" transform="rotate(90 13 37)" fill="#F2F2F2" stroke="#fff" stroke-width="2"/><circle cx="13.365" cy="141" r="12" transform="rotate(90 13.365 141)" fill="#F2F2F2" stroke="#fff" stroke-width="2"/><circle cx="13.729" cy="245" r="12" transform="rotate(90 13.73 245)" fill="#F2F2F2" stroke="#fff" stroke-width="2"/><circle cx="14.094" cy="335" r="12" transform="rotate(90 14.094 335)" fill="#F2F2F2" stroke="#fff" stroke-width="2"/><circle cx="14.459" cy="437" r="12" transform="rotate(90 14.459 437)" fill="#F2F2F2" stroke="#fff" stroke-width="2"/><circle cx="14.823" cy="541" r="12" transform="rotate(90 14.823 541)" fill="#F2F2F2" stroke="#fff" stroke-width="2"/><circle cx="15.188" cy="645" r="12" transform="rotate(90 15.188 645)" fill="#F2F2F2" stroke="#fff" stroke-width="2"/><circle cx="15.552" cy="747" r="12" transform="rotate(90 15.552 747)" fill="#F2F2F2" stroke="#fff" stroke-width="2"/></svg>